<?xml version="1.0" encoding="UTF-8"?>
<svg xmlns="http://www.w3.org/2000/svg" viewBox="0 0 400 400">
  <!-- Gradients -->
  <defs>
    <!-- Solana-inspired gradient -->
    <linearGradient id="solanaGradient" x1="0%" y1="0%" x2="100%" y2="100%">
      <stop offset="0%" stop-color="#9945FF" />
      <stop offset="100%" stop-color="#14F195" />
    </linearGradient>
  </defs>
  <!-- Clean circular background -->
  <circle cx="200" cy="200" r="150" fill="white" stroke="url(#solanaGradient)" stroke-width="12" />
  <!-- Minimalist shield outline -->
  <path d="M200,100
           C240,100 270,115 270,140
           L270,210
           C270,250 240,275 200,290
           C160,275 130,250 130,210
           L130,140
           C130,115 160,100 200,100Z"
        fill="white"
        stroke="url(#solanaGradient)"
        stroke-width="6" />
  <!-- More recognizable padlock - body -->
  <rect x="170" y="170" width="60" height="50" rx="10" fill="#14F195" />
  <!-- Lock shackle -->
  <path d="M180,170
           C180,150 190,140 200,140
           C210,140 220,150 220,170"
        fill="none"
        stroke="#9945FF"
        stroke-width="10"
        stroke-linecap="round" />
  <!-- Keyhole -->
  <circle cx="200" cy="185" r="8" fill="white" />
  <rect x="196" y="185" width="8" height="15" rx="2" fill="white" />
</svg> 